<svg width="19" height="21" viewBox="0 0 19 21" fill="none" xmlns="http://www.w3.org/2000/svg">
<path d="M14.4875 21H4.5125C2.80269 21 1.425 19.6465 1.425 17.9667V5.36667H0.7125C0.30894 5.36667 0 5.06315 0 4.66667V3.96667C0 3.57019 0.30894 3.26667 0.7125 3.26667H18.2875C18.6911 3.26667 19 3.57019 19 3.96667V4.66667C19 5.06315 18.6911 5.36667 18.2875 5.36667H17.575V17.9667C17.575 19.6465 16.1973 21 14.4875 21ZM2.85 6.06667V17.9667C2.85 18.8763 3.58663 19.6 4.5125 19.6H14.4875C15.4134 19.6 16.15 18.8763 16.15 17.9667V6.06667H2.85ZM12.825 17.0333H11.875C11.4714 17.0333 11.1625 16.7298 11.1625 16.3333V9.33333C11.1625 8.93685 11.4714 8.63333 11.875 8.63333H12.825C13.2286 8.63333 13.5375 8.93685 13.5375 9.33333V16.3333C13.5375 16.7298 13.2286 17.0333 12.825 17.0333ZM7.125 17.0333H6.175C5.77144 17.0333 5.4625 16.7298 5.4625 16.3333V9.33333C5.4625 8.93685 5.77144 8.63333 6.175 8.63333H7.125C7.52856 8.63333 7.8375 8.93685 7.8375 9.33333V16.3333C7.8375 16.7298 7.52856 17.0333 7.125 17.0333ZM12.1125 2.1H6.8875C6.48394 2.1 6.175 1.79648 6.175 1.4V0.7C6.175 0.30352 6.48394 0 6.8875 0H12.1125C12.5161 0 12.825 0.30352 12.825 0.7V1.4C12.825 1.79648 12.5161 2.1 12.1125 2.1Z" fill="#C69F9F"/>
</svg>
