<svg width="29" height="29" viewBox="0 0 29 29" fill="none" xmlns="http://www.w3.org/2000/svg">
<path d="M14.5 1C7.05495 1 1 7.05495 1 14.5C1 21.945 7.05495 28 14.5 28C21.945 28 28 21.945 28 14.5C28 7.05495 21.945 1 14.5 1ZM14.5 26.3636C7.95945 26.3636 2.63636 21.0405 2.63636 14.5C2.63636 7.95945 7.95945 2.63636 14.5 2.63636C21.0405 2.63636 26.3636 7.95945 26.3636 14.5C26.3636 21.0405 21.0405 26.3636 14.5 26.3636Z" fill="#BADEBE" stroke="#BADEBE"/>
<path d="M16.5454 13.6805H15.3181V11.2259H17.7726C18.2233 11.2259 18.5908 10.8584 18.5908 10.4078C18.5908 9.95712 18.2233 9.58958 17.7726 9.58958H15.3181V9.18049C15.3181 8.72983 14.9505 8.3623 14.4999 8.3623C14.0493 8.3623 13.6817 8.72985 13.6817 9.18049V9.58958H12.4545C10.8756 9.58958 9.59082 10.8744 9.59082 12.4532C9.59082 14.0321 10.8756 15.3169 12.4545 15.3169H13.6817V17.7714H11.2272C10.7765 17.7714 10.409 18.1389 10.409 18.5896C10.409 19.0402 10.7765 19.4078 11.2272 19.4078H13.6817V19.8169C13.6817 20.2675 14.0493 20.635 14.4999 20.635C14.9505 20.635 15.3181 20.2675 15.3181 19.8169V19.4078H16.5454C18.1242 19.4078 19.409 18.123 19.409 16.5441C19.409 14.9653 18.1242 13.6805 16.5454 13.6805ZM12.4545 13.6805C11.7801 13.6805 11.2272 13.1276 11.2272 12.4532C11.2272 11.7789 11.7801 11.2259 12.4545 11.2259H13.6817V13.6805H12.4545ZM16.5454 17.7714H15.3181V15.3169H16.5454C17.2197 15.3169 17.7726 15.8698 17.7726 16.5441C17.7726 17.2185 17.2197 17.7714 16.5454 17.7714Z" fill="#BADEBE" stroke="#BADEBE"/>
</svg>
