<svg width="22" height="22" viewBox="0 0 22 22" fill="none" xmlns="http://www.w3.org/2000/svg">
<path fill-rule="evenodd" clip-rule="evenodd" d="M0 1.1C0 0.492492 0.492492 0 1.1 0H11V2.2H2.2V19.8H19.8V11H22V20.9C22 21.5075 21.5075 22 20.9 22H1.1C0.492492 22 0 21.5075 0 20.9V1.1Z" fill="#9FACC6"/>
<path fill-rule="evenodd" clip-rule="evenodd" d="M17.6801 0C17.9719 0 18.2516 0.115896 18.4579 0.322179L21.6774 3.54169C22.107 3.97127 22.107 4.66775 21.6774 5.09733L12.0189 14.7558C11.8369 14.9378 11.5969 15.0502 11.3407 15.0735L7.7992 15.3955C7.47409 15.4251 7.15264 15.3087 6.9218 15.0778C6.69096 14.847 6.57458 14.5255 6.60413 14.2005L6.92608 10.659C6.94938 10.4027 7.06179 10.1627 7.24375 9.98074L16.9023 0.322179C17.1086 0.115896 17.3884 0 17.6801 0ZM16.3381 3.99757L18.0021 5.66144L19.344 4.31951L17.6801 2.65563L16.3381 3.99757ZM16.4464 7.21708L14.7825 5.5532L9.08099 11.2548L8.91456 13.0851L10.7449 12.9186L16.4464 7.21708Z" fill="#9FACC6"/>
</svg>
